{"title":"Transformers (2007) 1080p BluRay {Dual Audio} {6Ch.} [Hindi DD 5","uid":9725699,"size":3337150311,"categoryP":"video","categoryS":"hd___movies","magnet":"?xt=urn:btih:fac9cef06fb4315c1c7a47033706ee7ad62793d7&amp;dn=Transformers+%282007%29+1080p+BluRay+%7BDual+Audio%7D+%7B6Ch.%7D+%5BHindi+DD+5&amp;tr=udp%3A%2F%2Ftracker.openbittorrent.com%3A80&amp;tr=udp%3A%2F%2Fopen.demonii.com%3A1337&amp;tr=udp%3A%2F%2Ftracker.coppersurfer.tk%3A6969&amp;tr=udp%3A%2F%2Fexodus.desync.com%3A6969","seeders":4,"leechers":2,"uploader":"SaNRiM","files":4,"time":1394297994,"description":"Storyline\n\nA long time ago, far away on the planet of Cybertron, a war is being waged between the noble Autobots (led by the wise Optimus Prime) and the devious Decepticons (commanded by the dreaded Megatron) for control over the Allspark, a mystical talisman that would grant unlimited power to whoever possesses it. The Autobots managed to smuggle the Allspark off the planet, but Megatron blasts off in search of it. He eventually tracks it to the planet of Earth (circa 1850), but his reckless desire for power sends him right into the Arctic Ocean, and the sheer cold forces him into a paralyzed state. His body is later found by Captain Archibald Witwicky, but before going into a comatose state Megatron uses the last of his energy to engrave into the Captain's glasses a map showing the location of the Allspark, and to send a transmission to Cybertron. Megatron is then carried away aboard the Captain's ship. A century later, Captain Witwicky's grandson Sam Witwicky (nicknamed Spike by his friends)\n\n\n\nTorrent Info\n\nGeneral\n\nUnique ID : 248849276940250878835295899671732513285 (0xBB36A09DEE4EBF149BDDABB5A4B16A05)\nComplete name : Transformers (2007) 1080p BluRay {Dual Audio} {6Ch.} [Hindi DD 5.1 Original-English DD 5.1] ~SaNRiM~.mkv\nFormat : Matroska\nFormat version : Version 4 / Version 2\nFile size : 3.10 GiB\nDuration : 2h 17mn\nOverall bit rate : 3 223 Kbps\nEncoded date : UTC 2014-03-08 05:38:44\nWriting library : libebml v1.3.0 + libmatroska v1.4.1\n\n\nVideo\n\nID : 1\nFormat : AVC\nFormat/Info : Advanced Video Codec\nFormat profile : &lt;a class=&quot;__cf_email__&quot; href=&quot;/cdn-cgi/l/email-protection&quot; data-cfemail=&quot;3f775658577f730b110f&quot;&gt;[email&amp;#160;protected]&lt;/a&gt;&lt;script cf-hash='f9e31' type=&quot;text/javascript&quot;&gt;\n/* &lt;![CDATA[ */!function(){try{var t=&quot;currentScript&quot;in document?document.currentScript:function(){for(var t=document.getElementsByTagName(&quot;script&quot;),e=t.length;e--;)if(t[e].getAttribute(&quot;cf-hash&quot;))return t[e]}();if(t&amp;&amp;t.previousSibling){var e,r,n,i,c=t.previousSibling,a=c.getAttribute(&quot;data-cfemail&quot;);if(a){for(e=&quot;&quot;,r=parseInt(a.substr(0,2),16),n=2;a.length-n;n+=2)i=parseInt(a.substr(n,2),16)^r,e+=String.fromCharCode(i);e=document.createTextNode(e),c.parentNode.replaceChild(e,c)}}}catch(u){}}();/* ]]&gt; */&lt;/script&gt;\nFormat settings, CABAC : Yes\nFormat settings, ReFrames : 4 frames\nCodec ID : V_MPEG4/ISO/AVC\nDuration : 2h 17mn\nBit rate : 2 230 Kbps\nWidth : 1 920 pixels\nHeight : 800 pixels\nDisplay aspect ratio : 2.40:1\nFrame rate mode : Constant\nFrame rate : 25.000 fps\nOriginal frame rate : 23.976 fps\nColor space : YUV\nChroma subsampling : 4:2:0\nBit depth : 8 bits\nScan type : Progressive\nBits/(Pixel*Frame) : 0.058\nStream size : 2.18 GiB (70%)\nTitle : ~SaNRiM~\nWriting library : x264 core 128 r2216 198a7ea\nLanguage : English\nDefault : Yes\nForced : No\n\n\nAudio #1\n\nID : 2\nFormat : AC-3\nFormat/Info : Audio Coding 3\nMode extension : CM (complete main)\nFormat settings, Endianness : Big\nCodec ID : A_AC3\nDuration : 2h 17mn\nBit rate mode : Constant\nBit rate : 448 Kbps\nChannel(s) : 6 channels\nChannel positions : Front: L C R, Side: L R, LFE\nSampling rate : 48.0 KHz\nBit depth : 16 bits\nCompression mode : Lossy\nDelay relative to video : 8s 500ms\nStream size : 441 MiB (14%)\nTitle : ~SaNRiM~\nLanguage : Hindi\nDefault : Yes\nForced : No\n\n\nAudio #2\n\nID : 3\nFormat : AC-3\nFormat/Info : Audio Coding 3\nMode extension : CM (complete main)\nFormat settings, Endianness : Big\nCodec ID : A_AC3\nDuration : 2h 17mn\nBit rate mode : Constant\nBit rate : 448 Kbps\nChannel(s) : 6 channels\nChannel positions : Front: L C R, Side: L R, LFE\nSampling rate : 48.0 KHz\nBit depth : 16 bits\nCompression mode : Lossy\nStream size : 441 MiB (14%)\nTitle : ~SaNRiM~\nLanguage : English\nDefault : No\nForced : No\n\n\n\nScreens\n &lt;a href=&quot;\nhttp://someimage.com/g1kiahU&quot; rel=&quot;nofollow&quot; target=&quot;_NEW&quot;&gt;\nhttp://someimage.com/g1kiahU&lt;/a&gt; &lt;a href=&quot;\nhttp://someimage.com/IcbN4DE&quot; rel=&quot;nofollow&quot; target=&quot;_NEW&quot;&gt;\nhttp://someimage.com/IcbN4DE&lt;/a&gt; &lt;a href=&quot;\nhttp://someimage.com/W5VEx9E&quot; rel=&quot;nofollow&quot; target=&quot;_NEW&quot;&gt;\nhttp://someimage.com/W5VEx9E&lt;/a&gt; &lt;a href=&quot;\nhttp://someimage.com/HHixpdy&quot; rel=&quot;nofollow&quot; target=&quot;_NEW&quot;&gt;\nhttp://someimage.com/HHixpdy&lt;/a&gt; &lt;a href=&quot;\nhttp://someimage.com/mCkwnJe&quot; rel=&quot;nofollow&quot; target=&quot;_NEW&quot;&gt;\nhttp://someimage.com/mCkwnJe&lt;/a&gt; &lt;a href=&quot;\nhttp://someimage.com/19rIueO&quot; rel=&quot;nofollow&quot; target=&quot;_NEW&quot;&gt;\nhttp://someimage.com/19rIueO&lt;/a&gt; &lt;a href=&quot;\nhttp://someimage.com/dO2ezFV&quot; rel=&quot;nofollow&quot; target=&quot;_NEW&quot;&gt;\nhttp://someimage.com/dO2ezFV&lt;/a&gt; &lt;a href=&quot;\nhttp://someimage.com/m9WMZBo&quot; rel=&quot;nofollow&quot; target=&quot;_NEW&quot;&gt;\nhttp://someimage.com/m9WMZBo&lt;/a&gt; &lt;a href=&quot;\nhttp://someimage.com/k0ujeah&quot; rel=&quot;nofollow&quot; target=&quot;_NEW&quot;&gt;\nhttp://someimage.com/k0ujeah&lt;/a&gt; &lt;a href=&quot;\nhttp://someimage.com/D1qw6NZ&quot; rel=&quot;nofollow&quot; target=&quot;_NEW&quot;&gt;\nhttp://someimage.com/D1qw6NZ&lt;/a&gt; &lt;a href=&quot;\nhttp://someimage.com/Erj5iRK&quot; rel=&quot;nofollow&quot; target=&quot;_NEW&quot;&gt;\nhttp://someimage.com/Erj5iRK&lt;/a&gt; &lt;a href=&quot;\nhttp://someimage.com/smvFW3d&quot; rel=&quot;nofollow&quot; target=&quot;_NEW&quot;&gt;\nhttp://someimage.com/smvFW3d&lt;/a&gt; &lt;a href=&quot;\nhttp://someimage.com/UaDWH8m&quot; rel=&quot;nofollow&quot; target=&quot;_NEW&quot;&gt;\nhttp://someimage.com/UaDWH8m&lt;/a&gt; &lt;a href=&quot;\nhttp://someimage.com/cV0Lfpd&quot; rel=&quot;nofollow&quot; target=&quot;_NEW&quot;&gt;\nhttp://someimage.com/cV0Lfpd&lt;/a&gt; &lt;a href=&quot;\nhttp://someimage.com/TlqqIUo&quot; rel=&quot;nofollow&quot; target=&quot;_NEW&quot;&gt;\nhttp://someimage.com/TlqqIUo&lt;/a&gt; &lt;a href=&quot;\nhttp://someimage.com/1GLiZ6T&quot; rel=&quot;nofollow&quot; target=&quot;_NEW&quot;&gt;\nhttp://someimage.com/1GLiZ6T&lt;/a&gt;\n\n\n\n                   A BIG THANKS TO VDA FOR AUDIO\n\n\n\n                  If you like my work please comment\n                          Any request? Just PM me\n                       Please seed long after download\n                         Thank you &amp; enjoy the best\n                                 ~SaNRiM~\t","torrent":{"xt":"urn:btih:fac9cef06fb4315c1c7a47033706ee7ad62793d7","amp;dn":"Transformers+%282007%29+1080p+BluRay+%7BDual+Audio%7D+%7B6Ch.%7D+%5BHindi+DD+5","amp;tr":["udp%3A%2F%2Ftracker.openbittorrent.com%3A80","udp%3A%2F%2Fopen.demonii.com%3A1337","udp%3A%2F%2Ftracker.coppersurfer.tk%3A6969","udp%3A%2F%2Fexodus.desync.com%3A6969"],"infoHash":"fac9cef06fb4315c1c7a47033706ee7ad62793d7","infoHashBuffer":{"type":"Buffer","data":[250,201,206,240,111,180,49,92,28,122,71,3,55,6,238,122,214,39,147,215]},"announce":[],"urlList":[]}}